<svg class="svg-icon" style="width: 1em; height: 1em;vertical-align: middle;fill: currentColor;overflow: hidden;" viewBox="0 0 1024 1024" version="1.1" xmlns="http://www.w3.org/2000/svg"><path d="M512 512a128 128 0 1 0 128 128 128 128 0 0 0-128-128z m0 170.666667a42.666667 42.666667 0 1 1 42.666667-42.666667 42.666667 42.666667 0 0 1-42.666667 42.666667z m-30.293333-268.373334a42.666667 42.666667 0 0 0 14.08 8.96 40.106667 40.106667 0 0 0 32.426666 0 42.666667 42.666667 0 0 0 14.08-8.96L640 318.293333A42.666667 42.666667 0 1 0 577.706667 256l-23.04 25.173333V128a42.666667 42.666667 0 0 0-85.333334 0v153.173333L446.293333 256A42.666667 42.666667 0 0 0 384 318.293333zM810.666667 640a42.666667 42.666667 0 1 0-42.666667 42.666667 42.666667 42.666667 0 0 0 42.666667-42.666667z m42.666666-298.666667h-128a42.666667 42.666667 0 0 0 0 85.333334h128a42.666667 42.666667 0 0 1 42.666667 42.666666v341.333334a42.666667 42.666667 0 0 1-42.666667 42.666666H170.666667a42.666667 42.666667 0 0 1-42.666667-42.666666v-341.333334a42.666667 42.666667 0 0 1 42.666667-42.666666h128a42.666667 42.666667 0 0 0 0-85.333334H170.666667a128 128 0 0 0-128 128v341.333334a128 128 0 0 0 128 128h682.666666a128 128 0 0 0 128-128v-341.333334a128 128 0 0 0-128-128zM213.333333 640a42.666667 42.666667 0 1 0 42.666667-42.666667 42.666667 42.666667 0 0 0-42.666667 42.666667z"  /></svg>